<svg xmlns="http://www.w3.org/2000/svg" viewBox="0 0 66 20" style="background-color: white">
    <defs>
        <linearGradient id="b" x1="-9.176%" x2="90.015%" y1="-10.868%" y2="96.996%">
            <stop offset="67%" stop-color="#333"/>
            <stop offset="82%" stop-color="#1A1B1B"/>
        </linearGradient>
    </defs>
    <g fill="none" fill-rule="evenodd">
        <g fill-rule="nonzero">
            <path fill="#FF33B2" d="M43.782 2.811c1.344 0 2.419.735 2.814 1.16.5.538 1.3 1.54.947 3.476-.15.826-.71 1.535-1.287 2.052l2.001 2c1.023-.914 1.997-2.262 2.248-3.787.168-1.02.357-2.679-1.124-4.878-.94-1.396-2.816-2.287-3.606-2.518-1.676-.489-3.618-.129-3.942-.035-1.337.386-2.339.993-3.075 1.73l2.102 2.1c.573-.716 1.492-1.262 2.922-1.3"/>
            <path fill="url(#b)" d="M31.638 1.36c-1.157.98-1.769 2.412-1.769 4.143v7.38h2.89V5.457c0-.927.277-1.638.822-2.112.605-.526 1.547-.752 2.72-.652l.446.037V.155l-.363-.04a8.132 8.132 0 0 0-.881-.05c-1.517 0-2.863.448-3.865 1.296M58.502 0c-3.751 0-6.803 2.898-6.803 6.461s3.052 6.46 6.803 6.46c3.75 0 6.802-2.897 6.802-6.46S62.253 0 58.502 0zm-3.843 6.461c0-2.016 1.72-3.65 3.843-3.65 2.122 0 3.843 1.634 3.843 3.65s-1.72 3.65-3.843 3.65-3.843-1.634-3.843-3.65z"/>
            <path fill="url(#b)" d="M21.835 0c-3.75 0-6.802 2.898-6.802 6.461s3.051 6.46 6.802 6.46a6.971 6.971 0 0 0 4.664-1.763l-2.037-2.035a3.937 3.937 0 0 1-2.627.988c-1 0-1.91-.363-2.593-.956l9.316-3.682-.002-.011-.003-.017C28.038 2.364 25.223 0 21.835 0zm-3.843 6.461c0-2.016 1.72-3.65 3.843-3.65 1.196 0 2.264.518 2.969 1.332l-6.799 2.61a3.5 3.5 0 0 1-.013-.292zM6.803 0C3.052 0 0 2.898 0 6.461s3.052 6.46 6.803 6.46l3.964-.032h2.84V6.63c0-.036-.003-.071-.003-.108v-.06C13.605 2.898 10.555 0 6.804 0zM2.959 6.461c0-2.016 1.72-3.65 3.844-3.65 2.122 0 3.843 1.634 3.843 3.65v3.65H6.803c-2.123 0-3.844-1.634-3.844-3.65z"/>
            <path fill="url(#b)" d="M45.426 10.082c-.728.456-1.813.881-3.367 1.495l-2.748 1.048-.55.206c-1.502.559-4.017 1.494-5.347 3.248-1.095 1.441-1.287 3.143-1.319 3.808l-.003.074h2.943l.005-.066c.04-.497.192-1.444.76-2.192.823-1.087 2.911-1.863 4.038-2.283l.923-.344 2.744-1.054a29.46 29.46 0 0 0 3.354-1.568 7.543 7.543 0 0 0 1.37-.978l-2.003-1.999c-.278.25-.56.454-.8.605"/>
            <path fill="url(#b)" d="M37.04 7.492c.274 2.684 2.154 4.952 2.282 5.17l1.45 2.451c.406.687.76 1.292 1.018 1.754.795 1.428.908 2.53.905 3.06v.071h2.94v-.071c0-.966-.214-2.506-1.247-4.36a77.098 77.098 0 0 0-.872-1.508l-1.446-2.445c-.193-.346-1.758-2.35-2.05-4.418-.103-.74.022-2.071.822-3.07l-2.102-2.1c-1.51 1.515-1.893 3.587-1.7 5.466"/>
        </g>
    </g>
</svg>
