<?xml version="1.0" encoding="utf-8"?>
<!-- Generator: Adobe Illustrator 21.0.2, SVG Export Plug-In . SVG Version: 6.00 Build 0)  -->
<svg version="1.1" id="Layer_1" xmlns="http://www.w3.org/2000/svg" xmlns:xlink="http://www.w3.org/1999/xlink" x="0px" y="0px"
	 viewBox="0 0 114 44.3" style="enable-background:new 0 0 114 44.3;" xml:space="preserve">
<style type="text/css">
	.st0{fill:none;}
	.st1{fill:#231F20;}
	.st2{fill:#E30A7D;}
	.st3{fill:#259ECC;}
	.st4{fill:url(#SVGID_1_);}
</style>
<g>
	<rect class="st0" width="114" height="44.3"/>
	<path class="st1" d="M56.3,22.2c0-4,3.2-7.2,7.2-7.2c0,0,0,0,0,0c2.9,0,5.5,2,6.3,4.8l-10.2,5.9c1,1.1,2.4,1.8,3.9,1.8
		c1.5,0,3-0.6,4-1.7l1.4,1.2c-1.4,1.7-3.7,2.3-5.4,2.3C59.5,29.4,56.3,26.2,56.3,22.2C56.3,22.2,56.3,22.2,56.3,22.2z M67.5,19.1
		c-0.9-1.4-2.4-2.2-4.1-2.2c-2.9,0-5.3,2.4-5.3,5.3c0,0.7,0.1,1.4,0.4,2L67.5,19.1z"/>
	<path class="st1" d="M74.4,29.4h-1.9v-9.6c0-2.7,2.2-4.8,4.8-4.8h1.3v1.9h-1.3c-1.6,0-2.9,1.3-2.9,2.9L74.4,29.4z"/>
	<path class="st1" d="M46.7,29.4c-4,0-7.2-3.2-7.2-7.1c0-4,3.2-7.2,7.1-7.2c4,0,7.2,3.2,7.2,7.1c0,0,0,0,0,0v7.2H46.7z M52,22.2
		c0-2.9-2.4-5.3-5.3-5.3c-2.9,0-5.3,2.4-5.3,5.3c0,2.9,2.4,5.3,5.3,5.3C49.7,27.5,52,25.1,52,22.2C52,22.2,52,22.2,52,22.2z"/>
	<path class="st1" d="M94.9,22.2c0-4,3.2-7.2,7.2-7.2c4,0,7.2,3.2,7.2,7.2c0,4-3.2,7.2-7.2,7.2C98.1,29.4,94.9,26.2,94.9,22.2
		C94.9,22.2,94.9,22.2,94.9,22.2z M107.4,22.2c0-2.9-2.4-5.3-5.4-5.3s-5.3,2.4-5.3,5.4c0,2.9,2.4,5.3,5.3,5.3
		C105,27.5,107.4,25.1,107.4,22.2C107.4,22.2,107.4,22.2,107.4,22.2L107.4,22.2z"/>
	<path class="st2" d="M94.9,22.2c0-4,3.2-7.2,7.2-7.2c0,0,0,0,0,0v1.9c-2.9,0-5.3,2.4-5.3,5.3H94.9z"/>
	<path class="st1" d="M79.8,33.6c0-3.1,1.6-4.8,4.8-4.8h3.3c1.9,0,2.9-1.1,2.9-2.9V25c-2.3,2.1-5.9,2-8.1-0.4
		c-2.1-2.3-2-5.9,0.4-8.1c2.3-2.1,5.9-2,8.1,0.4c1,1,1.5,2.4,1.5,3.8v5.2c0,3.1-1.6,4.8-4.8,4.8h-3.3c-1.8,0-2.9,1.1-2.9,2.9v1.3
		h-1.9V33.6z M86.9,24.6c2.1,0,3.8-1.8,3.8-3.9c0-2.1-1.8-3.8-3.9-3.8c-2.1,0-3.8,1.7-3.8,3.8C83.1,22.9,84.8,24.6,86.9,24.6
		L86.9,24.6z"/>
	<path class="st3" d="M92.6,20.7c0,0,0,2.6-1.9,4.2c-1,1-2.4,1.5-3.8,1.5v-1.9c2.1,0,3.8-1.7,3.8-3.9H92.6z"/>
	<circle class="st3" cx="5.9" cy="30" r="1.1"/>
	<circle class="st2" cx="33.3" cy="14.5" r="1.1"/>
	
		<linearGradient id="SVGID_1_" gradientUnits="userSpaceOnUse" x1="316.6674" y1="894.2722" x2="352.8169" y2="875.1857" gradientTransform="matrix(0.7071 -0.7071 -0.7071 -0.7071 410.0672 882.8395)">
		<stop  offset="0.2" style="stop-color:#279ECC"/>
		<stop  offset="0.81" style="stop-color:#E4097D"/>
	</linearGradient>
	<path class="st4" d="M32.8,9.5L32.8,9.5c-0.6-0.6-1.5-0.6-2.1,0c0,0,0,0,0,0l-2.3,2.3l-2.1,2.1c-0.6,0.6-1.5,0.6-2.1,0c0,0,0,0,0,0
		l0,0c-0.6-0.6-0.6-1.5,0-2.1c0,0,0,0,0,0l1.2-1.2c0.6-0.6,0.6-1.6,0-2.1l0,0c-0.6-0.6-1.6-0.6-2.1,0c0,0,0,0,0,0L8.1,23.5
		c-0.6,0.6-0.6,1.6,0,2.1l0,0c0.6,0.6,1.6,0.6,2.1,0c0,0,0,0,0,0l1.7-1.7c0.6-0.6,1.5-0.6,2.1,0c0,0,0,0,0,0l0,0
		c0.6,0.6,0.6,1.5,0,2.1c0,0,0,0,0,0l-7.6,7.6c-0.6,0.6-0.6,1.6,0,2.1c0,0,0,0,0,0l0,0c0.6,0.6,1.6,0.6,2.1,0l2.5-2.6
		c0.6-0.6,1.6-0.6,2.2,0l0,0c0.6,0.6,1.6,0.6,2.1,0c0,0,0,0,0,0l2.3-2.3c0.6-0.6,1.6-0.6,2.1,0c0,0,0,0,0,0l0,0
		c0.6,0.6,1.5,0.6,2.1,0c0,0,0,0,0,0l10.7-10.7c0.6-0.6,0.6-1.6,0-2.2l0,0c-0.6-0.6-1.6-0.6-2.1,0c0,0,0,0,0,0l-0.1,0.1L29,19.8
		c-0.6,0.6-1.6,0.6-2.1,0c0,0,0,0,0,0l0,0c-0.6-0.6-0.6-1.5,0-2.1c0,0,0,0,0,0l1.9-1.9l4.1-4.1C33.4,11.1,33.4,10.1,32.8,9.5
		C32.8,9.5,32.8,9.5,32.8,9.5z"/>
</g>
</svg>
